<?xml version="1.0" encoding="UTF-8" standalone="no"?>
<!-- Generator: Adobe Illustrator 19.0.0, SVG Export Plug-In . SVG Version: 6.00 Build 0)  -->

<svg
   version="1.1"
   id="Layer_1"
   x="0px"
   y="0px"
   viewBox="0 0 511.99899 426.66904"
   xml:space="preserve"
   width="511.99899"
   height="426.66904"
   xmlns="http://www.w3.org/2000/svg"
   xmlns:svg="http://www.w3.org/2000/svg"><defs
   id="defs41">
	
</defs>
<g
   id="g4"
   transform="translate(0,-42.664972)"
   style="fill:#dfdfdf;fill-opacity:1">
		<path
   style="color:#000000;fill:#dfdfdf;-inkscape-stroke:none;fill-opacity:1"
   d="m 504.171,239.489 -234.667,-192 c -6.357,-5.227 -15.189,-6.293 -22.656,-2.773 -7.424,3.541 -12.181,11.051 -12.181,19.285 V 210.988 L 34.837,47.489 C 28.458,42.262 19.648,41.196 12.181,44.716 4.757,48.257 0,55.767 0,64.001 v 384 c 0,8.235 4.757,15.744 12.181,19.285 2.923,1.365 6.059,2.048 9.152,2.048 4.843,0 9.621,-1.643 13.504,-4.821 L 234.666,301.014 v 146.987 c 0,8.235 4.757,15.744 12.181,19.285 2.923,1.365 6.059,2.048 9.152,2.048 4.843,0 9.621,-1.643 13.504,-4.821 l 234.667,-192 c 4.949,-4.053 7.829,-10.112 7.829,-16.512 0,-6.4 -2.879,-12.458 -7.828,-16.512 z"
   id="path2" />
	</g>
<g
   id="g8"
   transform="translate(0,-42.664972)">
</g>
<g
   id="g10"
   transform="translate(0,-42.664972)">
</g>
<g
   id="g12"
   transform="translate(0,-42.664972)">
</g>
<g
   id="g14"
   transform="translate(0,-42.664972)">
</g>
<g
   id="g16"
   transform="translate(0,-42.664972)">
</g>
<g
   id="g18"
   transform="translate(0,-42.664972)">
</g>
<g
   id="g20"
   transform="translate(0,-42.664972)">
</g>
<g
   id="g22"
   transform="translate(0,-42.664972)">
</g>
<g
   id="g24"
   transform="translate(0,-42.664972)">
</g>
<g
   id="g26"
   transform="translate(0,-42.664972)">
</g>
<g
   id="g28"
   transform="translate(0,-42.664972)">
</g>
<g
   id="g30"
   transform="translate(0,-42.664972)">
</g>
<g
   id="g32"
   transform="translate(0,-42.664972)">
</g>
<g
   id="g34"
   transform="translate(0,-42.664972)">
</g>
<g
   id="g36"
   transform="translate(0,-42.664972)">
</g>
</svg>
