<?xml version="1.0" encoding="UTF-8" standalone="no"?>
<!-- Generator: Adobe Illustrator 19.0.0, SVG Export Plug-In . SVG Version: 6.00 Build 0)  -->

<svg
   version="1.1"
   id="Layer_1"
   x="0px"
   y="0px"
   viewBox="0 0 512 512"
   style="enable-background:new 0 0 512 512;"
   xml:space="preserve"
   xmlns="http://www.w3.org/2000/svg"
   xmlns:svg="http://www.w3.org/2000/svg"><defs
   id="defs93">
	
	
	
	
	

	
	

	
	
</defs>
<path
   id="circle2"
   style="color:#000000;fill:#dfdfdf;-inkscape-stroke:none;fill-opacity:1"
   d="M 256 0 A 256 256 0 0 0 0 256 A 256 256 0 0 0 256 512 A 256 256 0 0 0 512 256 A 256 256 0 0 0 256 0 z M 219.05469 56.888672 L 376.7168 214.55078 L 290.28125 300.98438 L 210.89258 300.98438 L 92.925781 183.01758 L 219.05469 56.888672 z M 261.17188 312.88867 A 5.1719999 5.1719999 0 0 1 266.34375 318.06055 A 5.1719999 5.1719999 0 0 1 261.17188 323.23242 A 5.1719999 5.1719999 0 0 1 256 318.06055 A 5.1719999 5.1719999 0 0 1 261.17188 312.88867 z M 241.77734 321.93945 A 5.1719999 5.1719999 0 0 1 246.94922 327.11133 A 5.1719999 5.1719999 0 0 1 241.77734 332.2832 A 5.1719999 5.1719999 0 0 1 236.60547 327.11133 A 5.1719999 5.1719999 0 0 1 241.77734 321.93945 z M 261.17188 359.43359 A 5.1719999 5.1719999 0 0 1 266.34375 364.60547 A 5.1719999 5.1719999 0 0 1 261.17188 369.77734 A 5.1719999 5.1719999 0 0 1 256 364.60547 A 5.1719999 5.1719999 0 0 1 261.17188 359.43359 z M 222.38477 398.22266 A 5.1719999 5.1719999 0 0 1 227.55664 403.39453 A 5.1719999 5.1719999 0 0 1 222.38477 408.56641 A 5.1719999 5.1719999 0 0 1 217.21289 403.39453 A 5.1719999 5.1719999 0 0 1 222.38477 398.22266 z M 279.27344 398.22266 A 5.1719999 5.1719999 0 0 1 284.44531 403.39453 A 5.1719999 5.1719999 0 0 1 279.27344 408.56641 A 5.1719999 5.1719999 0 0 1 274.10156 403.39453 A 5.1719999 5.1719999 0 0 1 279.27344 398.22266 z " />














<g
   id="g60">
</g>
<g
   id="g62">
</g>
<g
   id="g64">
</g>
<g
   id="g66">
</g>
<g
   id="g68">
</g>
<g
   id="g70">
</g>
<g
   id="g72">
</g>
<g
   id="g74">
</g>
<g
   id="g76">
</g>
<g
   id="g78">
</g>
<g
   id="g80">
</g>
<g
   id="g82">
</g>
<g
   id="g84">
</g>
<g
   id="g86">
</g>
<g
   id="g88">
</g>
<g
   id="g2693"
   style="fill:#dfdfdf;fill-opacity:1"><path
     id="path24"
     style="color:#000000;fill:#dfdfdf;-inkscape-stroke:none;fill-opacity:1"
     d="M 235.18945 210.5918 C 225.04945 210.5848 216.82645 215.08731 216.81445 229.32031 C 216.80445 243.55331 235.14844 262.13477 235.14844 262.13477 C 235.14844 262.13477 253.52316 243.58066 253.53516 229.34766 C 253.54716 215.11466 245.33145 210.5978 235.18945 210.5918 z " /><path
     id="path26"
     style="color:#000000;fill:#dfdfdf;-inkscape-stroke:none;fill-opacity:1"
     d="M 249.01172 168.36719 C 238.45484 168.37589 232.38459 172.17157 229.30273 177.94727 A 14.72 14.72 0 0 1 242.79297 192.61133 A 14.72 14.72 0 0 1 232.34961 206.6875 C 235.85988 210.11235 241.2187 212.19395 249.04297 212.1875 C 266.02897 212.1735 288.16992 190.24414 288.16992 190.24414 C 288.16992 190.24414 265.99772 168.35319 249.01172 168.36719 z " /><g
     id="g2449"
     style="fill:#dfdfdf;fill-opacity:1"><path
       id="circle30"
       style="color:#000000;fill:#dfdfdf;-inkscape-stroke:none;fill-opacity:1"
       d="m 211.98828,187.2832 a 21.413,21.413 0 0 0 -21.41211,21.41211 21.413,21.413 0 0 0 21.41211,21.41407 21.413,21.413 0 0 0 21.41406,-21.41407 21.413,21.413 0 0 0 -0.13476,-2.34961 14.72,14.72 0 0 1 -5.19531,0.98633 14.72,14.72 0 0 1 -14.71875,-14.7207 14.72,14.72 0 0 1 0.98632,-5.19336 21.413,21.413 0 0 0 -2.35156,-0.13477 z" /><path
       id="circle32"
       style="color:#000000;fill:#dfdfdf;-inkscape-stroke:none;fill-opacity:1"
       d="m 244.17383,155.11523 a 21.413,21.413 0 0 0 -21.41211,21.41211 21.413,21.413 0 0 0 0.16601,2.33399 14.72,14.72 0 0 1 5.14454,-0.96875 14.72,14.72 0 0 1 14.7207,14.71875 14.72,14.72 0 0 1 -0.97461,5.16015 21.413,21.413 0 0 0 2.35547,0.16993 21.413,21.413 0 0 0 21.41406,-21.41407 21.413,21.413 0 0 0 -21.41406,-21.41211 z" /><path
       id="circle36"
       style="color:#000000;fill:#dfdfdf;-inkscape-stroke:none;fill-opacity:1"
       d="m 211.98828,155.11523 a 21.413,21.413 0 0 0 -21.41211,21.41211 21.413,21.413 0 0 0 21.41211,21.41407 21.413,21.413 0 0 0 2.33984,-0.16797 14.72,14.72 0 0 1 -0.9746,-5.16211 14.72,14.72 0 0 1 14.71875,-14.71875 14.72,14.72 0 0 1 5.16406,0.93945 21.413,21.413 0 0 0 0.16601,-2.30469 21.413,21.413 0 0 0 -21.41406,-21.41211 z" /><path
       id="circle40"
       style="color:#000000;fill:#dfdfdf;-inkscape-stroke:none;fill-opacity:1"
       d="m 244.17383,187.2832 a 21.413,21.413 0 0 0 -2.32031,0.16602 14.72,14.72 0 0 1 0.93945,5.16211 14.72,14.72 0 0 1 -14.7207,14.7207 14.72,14.72 0 0 1 -5.14454,-0.96875 21.413,21.413 0 0 0 -0.16601,2.33203 21.413,21.413 0 0 0 21.41211,21.41407 21.413,21.413 0 0 0 21.41406,-21.41407 21.413,21.413 0 0 0 -21.41406,-21.41211 z" /></g><g
     id="g2169"
     transform="matrix(0.79933506,0,0,0.79933506,45.766255,38.650475)"
     style="fill:#dfdfdf;fill-opacity:1"><path
       style="color:#000000;fill:#dfdfdf;-inkscape-stroke:none;fill-opacity:1"
       d="m 242.793,192.612 a 14.72,14.72 0 0 1 -14.72,14.72 14.72,14.72 0 0 1 -14.72,-14.72 14.72,14.72 0 0 1 14.72,-14.72 14.72,14.72 0 0 1 14.72,14.72 z"
       id="circle44" /></g></g></svg>
