<?xml version="1.0" encoding="iso-8859-1"?>
<!-- Generator: Adobe Illustrator 18.0.0, SVG Export Plug-In . SVG Version: 6.00 Build 0)  -->
<!DOCTYPE svg PUBLIC "-//W3C//DTD SVG 1.1//EN" "http://www.w3.org/Graphics/SVG/1.1/DTD/svg11.dtd">
<svg version="1.1" id="Capa_1" xmlns="http://www.w3.org/2000/svg" xmlns:xlink="http://www.w3.org/1999/xlink" x="0px" y="0px"
	 viewBox="0 0 297 297" style="enable-background:new 0 0 297 297;" xml:space="preserve">
<g>
	<path d="M30.487,198.884c1.955-1.954,3.079-4.666,3.079-7.43c0-2.775-1.124-5.476-3.079-7.431
		c-1.955-1.955-4.656-3.079-7.431-3.079c-2.774,0-5.476,1.124-7.43,3.079c-1.955,1.955-3.08,4.656-3.08,7.431
		c0,2.764,1.125,5.476,3.08,7.43c1.954,1.955,4.666,3.08,7.43,3.08C25.82,201.965,28.532,200.84,30.487,198.884z"/>
	<path d="M40.398,167.28c2.764,0,5.476-1.125,7.431-3.08c1.955-1.954,3.079-4.666,3.079-7.43c0-2.764-1.124-5.476-3.079-7.431
		c-1.955-1.955-4.667-3.079-7.431-3.079c-2.764,0-5.476,1.124-7.43,3.079c-1.955,1.955-3.08,4.667-3.08,7.431
		c0,2.764,1.125,5.476,3.08,7.43C34.922,166.155,37.634,167.28,40.398,167.28z"/>
	<path d="M75.083,250.313c-2.764,0-5.476,1.114-7.43,3.079c-1.955,1.955-3.08,4.667-3.08,7.431c0,2.764,1.125,5.476,3.08,7.43
		c1.954,1.955,4.666,3.08,7.43,3.08c2.764,0,5.476-1.125,7.431-3.08c1.955-1.954,3.079-4.666,3.079-7.43
		c0-2.764-1.124-5.476-3.079-7.431C80.558,251.426,77.847,250.313,75.083,250.313z"/>
	<path d="M102.778,275.979c-2.764,0-5.476,1.124-7.431,3.079c-1.955,1.955-3.079,4.667-3.079,7.431c0,2.764,1.124,5.476,3.079,7.43
		c1.955,1.955,4.667,3.08,7.431,3.08c2.774,0,5.476-1.125,7.43-3.08c1.966-1.954,3.08-4.666,3.08-7.43
		c0-2.764-1.115-5.476-3.08-7.431C108.254,277.103,105.553,275.979,102.778,275.979z"/>
	<path d="M109.767,232.971c-2.764,0-5.476,1.124-7.43,3.079c-1.955,1.955-3.08,4.667-3.08,7.431c0,2.764,1.125,5.476,3.08,7.43
		c1.954,1.955,4.666,3.08,7.43,3.08c2.764,0,5.476-1.125,7.431-3.08c1.955-1.954,3.079-4.666,3.079-7.43
		c0-2.764-1.124-5.476-3.079-7.431C115.243,234.094,112.531,232.971,109.767,232.971z"/>
	<path d="M68.251,208.796c0-2.764-1.124-5.476-3.079-7.431c-1.955-1.955-4.667-3.079-7.431-3.079c-2.764,0-5.476,1.124-7.43,3.079
		c-1.955,1.955-3.08,4.667-3.08,7.431s1.125,5.476,3.08,7.43c1.954,1.955,4.666,3.08,7.43,3.08c2.764,0,5.476-1.125,7.431-3.08
		C67.127,214.261,68.251,211.561,68.251,208.796z"/>
	<path d="M40.398,232.971c-2.764,0-5.476,1.124-7.43,3.079c-1.955,1.955-3.08,4.667-3.08,7.431c0,2.764,1.125,5.476,3.08,7.43
		c1.954,1.955,4.666,3.08,7.43,3.08c2.764,0,5.476-1.125,7.431-3.08c1.955-1.954,3.079-4.666,3.079-7.43
		c0-2.764-1.124-5.476-3.079-7.431C45.874,234.094,43.162,232.971,40.398,232.971z"/>
	<path d="M33.409,275.979c-2.764,0-5.476,1.124-7.431,3.079c-1.955,1.955-3.079,4.667-3.079,7.431c0,2.764,1.124,5.476,3.079,7.43
		c1.955,1.955,4.667,3.08,7.431,3.08c2.774,0,5.476-1.125,7.43-3.08c1.966-1.954,3.08-4.666,3.08-7.43
		c0-2.764-1.115-5.476-3.08-7.431C38.885,277.103,36.184,275.979,33.409,275.979z"/>
	<path d="M209.814,75.144c-3.95-4.004-9.17-6.008-14.405-6.008c-5.184,0-10.381,1.965-14.376,5.9
		c-1.492,1.468-2.705,3.104-3.652,4.847c-0.903-1.755-2.088-3.397-3.547-4.871c-3.949-4.004-9.169-6.008-14.404-6.008
		c-5.184,0-10.383,1.965-14.38,5.899c-8.027,7.91-8.162,20.781-0.298,28.746c1.453,1.478,3.085,2.683,4.828,3.613
		c-1.761,0.922-3.416,2.112-4.9,3.578c-8.037,7.906-8.172,20.779-0.304,28.742c3.949,4.004,9.169,6.008,14.405,6.008
		c5.184,0,10.383-1.965,14.38-5.9c1.488-1.466,2.702-3.102,3.648-4.847c0.911,1.755,2.088,3.4,3.545,4.878
		c3.95,4.002,9.169,6.005,14.402,6.005c5.185,0,10.384-1.965,14.378-5.9c8.035-7.91,8.172-20.776,0.304-28.748
		c-1.453-1.48-3.087-2.677-4.83-3.609c1.761-0.924,3.418-2.112,4.906-3.58C217.541,95.982,217.679,83.113,209.814,75.144z
		 M195.185,125.455c-4.843,4.843-11.281,7.511-18.128,7.511c-6.833,0-13.254-2.659-18.08-7.484
		c-4.839-4.837-7.499-11.272-7.49-18.12c0.01-6.833,2.677-13.259,7.512-18.094c4.845-4.845,11.283-7.513,18.129-7.513
		c6.833,0,13.256,2.66,18.081,7.487c4.84,4.838,7.499,11.273,7.489,18.12C202.689,114.194,200.02,120.619,195.185,125.455z"/>
	<path d="M177.129,94.368c-3.331,0-6.665,1.273-9.211,3.819c-5.081,5.081-5.093,13.308-0.025,18.375
		c2.529,2.529,5.844,3.792,9.163,3.792c3.331,0,6.666-1.273,9.209-3.817c5.083-5.083,5.095-13.308,0.027-18.375
		C183.764,95.632,180.448,94.368,177.129,94.368z"/>
	<path d="M59.151,119.97c-0.83-1.627-1.376-3.357-1.65-5.121l-7.953,7.952c-3.084,3.083-3.831,7.804-1.848,11.688
		c22.928,44.927,57.335,79.333,102.263,102.263c1.45,0.74,3.016,1.099,4.571,1.099c2.61,0,5.185-1.014,7.118-2.947l7.949-7.948
		c-1.778-0.281-3.514-0.835-5.117-1.654C118.21,201.682,82.771,166.243,59.151,119.97z"/>
	<path d="M284.112,103.958C260.878,58.437,226.016,23.575,180.495,0.343C180.045,0.113,179.554,0,179.063,0
		c-0.589,0-1.177,0.163-1.689,0.488C127.082,32.313,102.044,57.35,70.216,107.645c-0.592,0.937-0.648,2.133-0.144,3.12
		c23.235,45.518,58.097,80.38,103.617,103.617c0.984,0.502,2.189,0.445,3.122-0.146c50.292-31.824,75.329-56.861,107.156-107.158
		C284.561,106.141,284.616,104.945,284.112,103.958z M227.863,125.493c-0.063,8.827-3.572,17.109-9.878,23.316
		c-6.237,6.143-14.487,9.527-23.229,9.527c-6.532,0-12.759-1.882-18.071-5.391c-5.297,3.42-11.468,5.255-17.905,5.255
		c-8.869,0-17.173-3.468-23.376-9.756c-6.159-6.233-9.516-14.499-9.454-23.276c0.046-6.522,1.973-12.745,5.513-18.047
		c-3.408-5.318-5.201-11.52-5.134-17.999c0.091-8.784,3.596-17.024,9.872-23.209c6.239-6.142,14.488-9.524,23.228-9.524
		c6.538,0,12.769,1.885,18.074,5.39c5.297-3.422,11.468-5.257,17.906-5.257c8.868,0,17.172,3.468,23.382,9.762
		c6.182,6.265,9.536,14.571,9.444,23.387c-0.068,6.476-1.991,12.657-5.509,17.931C226.116,112.892,227.909,119.056,227.863,125.493z
		"/>
</g>
<g>
</g>
<g>
</g>
<g>
</g>
<g>
</g>
<g>
</g>
<g>
</g>
<g>
</g>
<g>
</g>
<g>
</g>
<g>
</g>
<g>
</g>
<g>
</g>
<g>
</g>
<g>
</g>
<g>
</g>
</svg>
