<?xml version="1.0" encoding="UTF-8" standalone="no"?>
<!-- Generator: Adobe Illustrator 16.0.0, SVG Export Plug-In . SVG Version: 6.00 Build 0)  -->

<svg
   version="1.1"
   id="Capa_1"
   x="0px"
   y="0px"
   width="45.672px"
   height="45.673px"
   viewBox="0 0 45.672 45.673"
   style="enable-background:new 0 0 45.672 45.673;"
   xml:space="preserve"
   xmlns="http://www.w3.org/2000/svg"
   xmlns:svg="http://www.w3.org/2000/svg"><defs
   id="defs45" />
<g
   id="g10"
   transform="matrix(-1,0,0,1,45.671971,0)">
	<g
   id="g8">
		<path
   d="m 43.026,30.025 c -1.122,0 -2.031,2.91 -2.031,4.031 0,1.122 0.909,2.031 2.031,2.031 1.122,0 2.031,-0.909 2.031,-2.031 0,-1.12 -0.909,-4.031 -2.031,-4.031 z"
   id="path2" />
		<path
   d="m 39.44,39.611 c -1.122,0 -2.031,2.908 -2.031,4.03 0,1.122 0.909,2.031 2.031,2.031 1.122,0 2.031,-0.909 2.031,-2.031 0,-1.122 -0.909,-4.03 -2.031,-4.03 z"
   id="path4" />
		<path
   d="m 36.638,24.143 c 0.97,1.908 2.862,3.215 5.019,3.407 0.356,0.032 0.708,-0.103 0.954,-0.36 0.246,-0.261 0.358,-0.619 0.307,-0.974 l -1.436,-9.814 c -0.052,-0.354 -0.263,-0.665 -0.573,-0.844 -0.31,-0.179 -0.685,-0.206 -1.017,-0.074 -2.011,0.801 -3.45,2.596 -3.833,4.702 L 24.894,21.82 30.399,14.841 C 31.2,13.826 31.08,12.365 30.125,11.494 L 20.834,3.024 C 19.879,2.154 18.413,2.17 17.477,3.06 L 17.273,3.253 C 17.039,2.985 16.792,2.727 16.523,2.482 14.767,0.881 12.492,0 10.118,0 7.449,0 4.887,1.131 3.089,3.102 c -3.472,3.81 -3.255,9.69 0.433,13.246 -0.44,0.463 -0.692,1.074 -0.686,1.717 0.007,0.684 0.298,1.334 0.804,1.794 l 11.307,10.309 c 0.505,0.461 1.18,0.691 1.861,0.636 0.682,-0.057 1.31,-0.394 1.733,-0.93 L 21.29,26.39 Z M 5.307,5.123 C 6.537,3.773 8.291,3 10.119,3 c 1.625,0 3.181,0.604 4.383,1.699 0.216,0.197 0.41,0.409 0.593,0.627 L 5.686,14.273 C 3.08,11.849 2.903,7.76 5.307,5.123 Z"
   id="path6" />
	</g>
</g>
<g
   id="g12">
</g>
<g
   id="g14">
</g>
<g
   id="g16">
</g>
<g
   id="g18">
</g>
<g
   id="g20">
</g>
<g
   id="g22">
</g>
<g
   id="g24">
</g>
<g
   id="g26">
</g>
<g
   id="g28">
</g>
<g
   id="g30">
</g>
<g
   id="g32">
</g>
<g
   id="g34">
</g>
<g
   id="g36">
</g>
<g
   id="g38">
</g>
<g
   id="g40">
</g>
</svg>
