<?xml version="1.0" encoding="UTF-8" standalone="no"?>
<svg
   width="20.281115"
   height="14.10005"
   viewBox="0 0 20.281115 14.10005"
   fill="none"
   version="1.1"
   id="svg6"
   xmlns="http://www.w3.org/2000/svg"
   xmlns:svg="http://www.w3.org/2000/svg">
  <defs
     id="defs10" />
  <path
     d="m 8.948215,3.51965 c 0.2929,-0.29289 0.7677,-0.29289 1.0606,0 l 2.4697,2.4697 2.4697,-2.46969 c 0.2929,-0.29289 0.7677,-0.29289 1.0606,0 0.2929,0.29289 0.2929,0.76777 0,1.06066 l -2.4696,2.46963 2.4696,2.4697 c 0.2929,0.2929 0.2929,0.7678 0,1.0607 -0.2929,0.2929 -0.7677,0.2929 -1.0606,0 l -2.4697,-2.4697 -2.4697,2.4697 c -0.2929,0.2929 -0.7677,0.2929 -1.0606,0 -0.2929,-0.2929 -0.2929,-0.7678 0,-1.0607 l 2.4696,-2.4697 -2.4696,-2.46964 c -0.2929,-0.29289 -0.2929,-0.76777 0,-1.06066 z"
     fill="#000000"
     id="path2"
     style="fill:#dfdfdf;fill-opacity:1" />
  <path
     fill-rule="evenodd"
     clip-rule="evenodd"
     d="m 6.884465,0 c -1.15107,0 -2.23838,0.52864 -2.9493,1.43393 l -3.5615,4.53522 c -0.49822,0.6345 -0.49822,1.5273 0,2.1617 l 3.5615,4.5352 c 0.71093,0.9053 1.79823,1.434 2.9493,1.434 h 10.64665 c 1.5188,0 2.75,-1.2313 2.75,-2.75 V 2.75 c 0,-1.51878 -1.2312,-2.75 -2.75,-2.75 z M 5.114885,2.36036 C 5.541435,1.81719 6.193825,1.5 6.884465,1.5 h 10.64665 c 0.6904,0 1.25,0.55965 1.25,1.25 v 8.60005 c 0,0.6903 -0.5596,1.25 -1.25,1.25 H 6.884465 c -0.69064,0 -1.34303,-0.3172 -1.76958,-0.8604 l -3.56151,-4.5352 c -0.07117,-0.0907 -0.07117,-0.2182 0,-0.3089 z"
     fill="#000000"
     id="path4"
     style="fill:#dfdfdf;fill-opacity:1" />
</svg>
