<?xml version="1.0" encoding="UTF-8" standalone="no"?>
<svg
   xmlns:dc="http://purl.org/dc/elements/1.1/"
   xmlns:cc="http://creativecommons.org/ns#"
   xmlns:rdf="http://www.w3.org/1999/02/22-rdf-syntax-ns#"
   xmlns:svg="http://www.w3.org/2000/svg"
   xmlns="http://www.w3.org/2000/svg"
   version="1.1"
   id="Layer_1"
   x="0px"
   y="0px"
   viewBox="0 0 512 512"
   style="enable-background:new 0 0 512 512;"
   xml:space="preserve"><metadata
   id="metadata87"><rdf:RDF><cc:Work
       rdf:about=""><dc:format>image/svg+xml</dc:format><dc:type
         rdf:resource="http://purl.org/dc/dcmitype/StillImage" /><dc:title></dc:title></cc:Work></rdf:RDF></metadata><defs
   id="defs85" />
<circle
   style="fill:#FFEDB5;"
   cx="256"
   cy="256"
   r="256"
   id="circle2" />
<path
   style="fill:#FEE187;"
   d="M286.892,510.138c109.085-13.122,197.053-94.841,219.519-200.77L297.632,103.372l-52.262,65.57  l-30.779,17.779l38.231,35.588v64.329l-93.362,17.63l84.435,84.435l-44.785,33.652L286.892,510.138z"
   id="path4" />
<path
   style="fill:#477F3C;"
   d="M256,319.785c-3.808,0-6.896-3.088-6.896-6.896V170.667c0-3.808,3.088-6.896,6.896-6.896  c3.808,0,6.896,3.088,6.896,6.896v142.222C262.896,316.697,259.808,319.785,256,319.785z"
   id="path6" />
<path
   style="fill:#2E5E24;"
   d="M256,163.771c-0.197,0-0.381,0.041-0.574,0.059v155.898c0.193,0.016,0.378,0.059,0.574,0.059  c3.808,0,6.896-3.088,6.896-6.896V170.667C262.896,166.859,259.808,163.771,256,163.771z"
   id="path8" />
<polygon
   style="fill:#D35933;"
   points="312.889,422.357 199.111,422.357 170.667,280.135 341.333,280.135 "
   id="polygon10" />
<g
   id="g16">
	<polygon
   style="fill:#B54324;"
   points="341.333,280.135 255.426,280.135 255.426,422.357 312.889,422.357  "
   id="polygon12" />
	<rect
   x="159.461"
   y="256"
   style="fill:#B54324;"
   width="193.077"
   height="48.269"
   id="rect14" />
</g>
<rect
   x="255.431"
   y="256"
   style="fill:#930000;"
   width="97.108"
   height="48.269"
   id="rect18" />
<circle
   style="fill:#B54324;"
   cx="234.555"
   cy="166.46"
   r="28.546"
   id="circle20" />
<circle
   style="fill:#930000;"
   cx="277.445"
   cy="123.552"
   r="28.546"
   id="circle22" />
<circle
   style="fill:#B54324;"
   cx="234.555"
   cy="123.552"
   r="28.546"
   id="circle24" />
<circle
   style="fill:#930000;"
   cx="277.445"
   cy="166.46"
   r="28.546"
   id="circle26" />
<circle
   style="fill:#D35933;"
   cx="225.366"
   cy="144.998"
   r="28.836"
   id="circle28" />
<circle
   style="fill:#B54324;"
   cx="286.634"
   cy="144.998"
   r="28.836"
   id="circle30" />
<g
   id="g36">
	<circle
   style="fill:#FF7F4F;"
   cx="256"
   cy="114.364"
   r="28.836"
   id="circle32" />
	<circle
   style="fill:#FF7F4F;"
   cx="256"
   cy="175.649"
   r="28.836"
   id="circle34" />
</g>
<g
   id="g42">
	<path
   style="fill:#D35933;"
   d="M256,85.532c-0.193,0-0.381,0.026-0.574,0.029v57.615c0.193,0.003,0.381,0.029,0.574,0.029   c15.925,0,28.836-12.91,28.836-28.836C284.836,98.442,271.925,85.532,256,85.532z"
   id="path38" />
	<path
   style="fill:#D35933;"
   d="M256,146.808c-0.193,0-0.381,0.026-0.574,0.029v57.615c0.193,0.003,0.381,0.029,0.574,0.029   c15.925,0,28.836-12.91,28.836-28.836C284.836,159.718,271.925,146.808,256,146.808z"
   id="path40" />
</g>
<circle
   style="fill:#FFC61B;"
   cx="256"
   cy="144.998"
   r="22.333"
   id="circle44" />
<path
   style="fill:#EAA22F;"
   d="M271.791,129.214c-4.508-4.506-10.461-6.665-16.365-6.513v44.611  c5.906,0.152,11.859-2.007,16.365-6.515C280.512,152.076,280.512,137.935,271.791,129.214z"
   id="path46" />
<path
   style="fill:#3B9B27;"
   d="M268.245,210.127c11.39-5.81,33.735,1.308,33.735,1.308s-7.37,22.273-18.76,28.082  c-11.39,5.81-18.351,1.071-22.487-7.046C256.6,224.356,256.855,215.936,268.245,210.127z"
   id="path48" />
<path
   style="fill:#2E821A;"
   d="M301.98,211.435c0,0-7.37,22.273-18.76,28.082c-11.39,5.81-18.351,1.071-22.487-7.046L301.98,211.435  z"
   id="path50" />
<g
   id="g52">
</g>
<g
   id="g54">
</g>
<g
   id="g56">
</g>
<g
   id="g58">
</g>
<g
   id="g60">
</g>
<g
   id="g62">
</g>
<g
   id="g64">
</g>
<g
   id="g66">
</g>
<g
   id="g68">
</g>
<g
   id="g70">
</g>
<g
   id="g72">
</g>
<g
   id="g74">
</g>
<g
   id="g76">
</g>
<g
   id="g78">
</g>
<g
   id="g80">
</g>
</svg>
