<?xml version="1.0" encoding="UTF-8" standalone="no"?>
<!-- Generator: Adobe Illustrator 18.1.1, SVG Export Plug-In . SVG Version: 6.00 Build 0)  -->

<svg
   version="1.1"
   id="Capa_1"
   x="0px"
   y="0px"
   viewBox="0 0 22.214 20.398"
   xml:space="preserve"
   width="22.214001"
   height="20.398001"
   xmlns="http://www.w3.org/2000/svg"
   xmlns:svg="http://www.w3.org/2000/svg"><defs
   id="defs39">
	
</defs>
















<g
   id="g1094"
   transform="translate(0,-0.908)"><path
     style="fill:#030104"
     d="m 14.398,3.871 0.727,-0.966 1.217,-0.053 -0.971,-0.73 -0.055,-1.214 -0.73,0.971 -1.213,0.053 0.973,0.733 z"
     id="path867" /><path
     style="fill:#030104"
     d="m 18.013,8.406 -0.688,0.914 -1.143,0.05 0.916,0.689 0.05,1.135 0.685,-0.908 1.145,-0.051 -0.914,-0.687 z"
     id="path861" /><path
     style="fill:#030104"
     d="M 16.552,6.352 14.959,4.758 C 14.461,4.26 14.231,4.836 13.734,5.333 13.238,5.829 12.662,6.059 13.16,6.557 l 1.594,1.594 c 0.498,0.498 0.727,-0.08 1.224,-0.576 0.494,-0.497 1.072,-0.726 0.574,-1.223 z"
     id="path859" /><path
     style="fill:#030104"
     d="M 12.189,6.882 14.43,9.124 2.241,21.306 0,19.064 Z"
     id="path2" /><g
     id="g6">
</g><g
     id="g8">
</g><g
     id="g10">
</g><g
     id="g12">
</g><g
     id="g14">
</g><g
     id="g16">
</g><g
     id="g18">
</g><g
     id="g20">
</g><g
     id="g22">
</g><g
     id="g24">
</g><g
     id="g26">
</g><g
     id="g28">
</g><g
     id="g30">
</g><g
     id="g32">
</g><g
     id="g34">
</g><path
     style="fill:#030104"
     d="M 22.214,4.654 20.153,4.745 18.921,6.38 18.833,4.335 17.185,3.095 19.242,3.005 20.478,1.359 20.57,3.416 Z"
     id="path863" /></g></svg>
