<?xml version="1.0" encoding="iso-8859-1"?>
<!-- Generator: Adobe Illustrator 19.0.0, SVG Export Plug-In . SVG Version: 6.00 Build 0)  -->
<svg version="1.1" id="Layer_1" xmlns="http://www.w3.org/2000/svg" xmlns:xlink="http://www.w3.org/1999/xlink" x="0px" y="0px"
	 viewBox="0 0 512 512" style="enable-background:new 0 0 512 512;" xml:space="preserve">
<circle style="fill:#FFEDB5;" cx="256" cy="256" r="256"/>
<path style="fill:#FEE187;" d="M384.743,477.305c53.35-31.103,94.43-80.939,114.228-140.498L376.715,214.55l-165.824,86.433
	l28.181,28.181l-1.445,1.026L384.743,477.305z"/>
<path style="fill:#FFC61B;" d="M19.082,353.113C57.337,446.336,148.992,512,256,512s198.663-65.664,236.918-158.887L19.082,353.113
	L19.082,353.113z"/>
<polygon style="fill:#FF7F4F;" points="290.282,300.984 376.716,214.55 219.055,56.889 92.925,183.018 210.892,300.984 "/>
<g>
	<polygon style="fill:#D35933;" points="156.648,119.296 92.927,183.018 210.892,300.984 290.282,300.984 314.309,276.956 	"/>
	<polygon style="fill:#D35933;" points="290.282,300.984 376.716,214.55 360.95,198.784 258.75,300.984 	"/>
	
		<rect x="74.689" y="116.674" transform="matrix(0.7071 -0.7071 0.7071 0.7071 -42.3863 153.3153)" style="fill:#D35933;" width="178.371" height="22.297"/>
</g>
<g>
	<polygon style="fill:#B54324;" points="298.543,261.191 258.75,300.984 290.282,300.984 314.309,276.956 	"/>
	
		<rect x="87.613" y="147.897" transform="matrix(-0.7071 0.7071 -0.7071 -0.7071 338.9386 177.6974)" style="fill:#B54324;" width="90.108" height="22.297"/>
</g>
<g>
	<path style="fill:#477F3C;" d="M253.535,229.347c-0.012,14.233-18.387,32.787-18.387,32.787s-18.344-18.58-18.334-32.813
		c0.012-14.233,8.235-18.737,18.375-18.73C245.331,210.597,253.547,215.114,253.535,229.347z"/>
	<path style="fill:#477F3C;" d="M249.042,212.187c16.986-0.014,39.128-21.942,39.128-21.942s-22.173-21.892-39.159-21.878
		c-16.986,0.014-22.361,9.828-22.352,21.928C226.668,202.395,232.055,212.201,249.042,212.187z"/>
</g>
<g>
	<circle style="fill:#FFFFFF;" cx="211.989" cy="208.696" r="21.413"/>
	<circle style="fill:#FFFFFF;" cx="244.174" cy="176.528" r="21.413"/>
</g>
<circle style="fill:#FFEDB5;" cx="211.989" cy="176.528" r="21.413"/>
<path style="fill:#FEE187;" d="M197.842,160.489c-0.333,0.293-0.671,0.576-0.99,0.895c-8.363,8.363-8.363,21.919,0,30.28
	c8.363,8.361,21.919,8.363,30.282,0c0.317-0.317,0.6-0.657,0.895-0.99L197.842,160.489z"/>
<circle style="fill:#FFEDB5;" cx="244.174" cy="208.696" r="21.413"/>
<path style="fill:#FEE187;" d="M230.016,192.664c-0.333,0.293-0.671,0.576-0.99,0.895c-8.363,8.363-8.363,21.919,0,30.282
	c8.363,8.363,21.919,8.363,30.282,0c0.317-0.319,0.6-0.657,0.895-0.99L230.016,192.664z"/>
<circle style="fill:#FFC61B;" cx="228.073" cy="192.612" r="14.72"/>
<path style="fill:#EAA22F;" d="M218.66,181.307c-0.338,0.283-0.672,0.576-0.99,0.895c-5.749,5.749-5.749,15.069,0,20.818
	s15.069,5.749,20.818,0c0.317-0.317,0.612-0.65,0.895-0.99L218.66,181.307z"/>
<g>
	<circle style="fill:#D35933;" cx="241.778" cy="327.111" r="5.172"/>
	<circle style="fill:#D35933;" cx="261.172" cy="364.606" r="5.172"/>
	<circle style="fill:#D35933;" cx="222.384" cy="403.394" r="5.172"/>
	<circle style="fill:#D35933;" cx="279.273" cy="403.394" r="5.172"/>
	<circle style="fill:#D35933;" cx="261.172" cy="318.061" r="5.172"/>
</g>
<g>
</g>
<g>
</g>
<g>
</g>
<g>
</g>
<g>
</g>
<g>
</g>
<g>
</g>
<g>
</g>
<g>
</g>
<g>
</g>
<g>
</g>
<g>
</g>
<g>
</g>
<g>
</g>
<g>
</g>
</svg>
