<?xml version="1.0" encoding="UTF-8" standalone="no"?>
<svg
   width="19.5"
   height="19.5"
   viewBox="0 0 19.5 19.5"
   fill="none"
   version="1.1"
   id="svg4"
   xmlns="http://www.w3.org/2000/svg"
   xmlns:svg="http://www.w3.org/2000/svg">
  <defs
     id="defs8" />
  <path
     style="color:#000000;fill:#dfdfdf;-inkscape-stroke:none;fill-opacity:1"
     d="M 9.75,0 C 4.3741148,0 0,4.3741148 0,9.75 0,15.125922 4.3741188,19.5 9.75,19.5 15.125918,19.5 19.5,15.125918 19.5,9.75 19.5,4.3741188 15.125922,0 9.75,0 Z m 0,1.5 c 2.006741,0 3.774827,0.8005713 5.203125,1.9863281 L 9.75,8.6894531 4.546875,3.4863281 C 5.9751768,2.3005708 7.7432778,1.5 9.75,1.5 Z M 3.4863281,4.546875 8.6894531,9.75 3.4863281,14.953125 C 2.3005713,13.524827 1.5,11.756741 1.5,9.75 1.5,7.7432778 2.3005708,5.9751768 3.4863281,4.546875 Z m 12.5273439,0 C 17.199423,5.9751765 18,7.7432761 18,9.75 c 0,2.006743 -0.800577,3.774827 -1.986328,5.203125 L 10.810547,9.75 Z M 9.75,10.810547 14.953125,16.013672 C 13.524827,17.199423 11.756743,18 9.75,18 7.7432761,18 5.9751765,17.199423 4.546875,16.013672 Z"
     id="path2" />
</svg>
