<?xml version="1.0" encoding="iso-8859-1"?>
<!-- Generator: Adobe Illustrator 19.0.0, SVG Export Plug-In . SVG Version: 6.00 Build 0)  -->
<svg version="1.1" id="Layer_1" xmlns="http://www.w3.org/2000/svg" xmlns:xlink="http://www.w3.org/1999/xlink" x="0px" y="0px"
	 viewBox="0 0 512.002 512.002" style="enable-background:new 0 0 512.002 512.002;" xml:space="preserve">
<g>
	<path style="fill:#FFC61B;" d="M457.579,365.303c-4.023,0-8.044-1.536-11.113-4.603c-6.137-6.137-6.137-16.089,0-22.228
		c21.989-21.989,34.101-51.278,34.101-82.472s-12.11-60.483-34.099-82.474c-6.137-6.137-6.137-16.089,0-22.228
		c6.139-6.136,16.088-6.136,22.228,0c27.927,27.927,43.306,65.112,43.306,104.701s-15.38,76.773-43.308,104.699
		C465.623,363.769,461.599,365.303,457.579,365.303z"/>
	<path style="fill:#FFC61B;" d="M417.066,324.79c-4.023,0-8.044-1.536-11.113-4.603c-6.137-6.137-6.137-16.089,0-22.228
		c23.137-23.137,23.137-60.782,0-83.918c-6.137-6.137-6.137-16.089,0-22.228c6.139-6.136,16.088-6.136,22.228,0
		c35.393,35.393,35.393,92.981,0,128.373C425.11,323.255,421.089,324.79,417.066,324.79z"/>
	<path style="fill:#FFC61B;" d="M47.693,378.095C21.395,378.095,0,356.702,0,330.403V181.597c0-26.297,21.394-47.693,47.691-47.693
		s47.693,21.394,47.693,47.693v148.805C95.384,356.702,73.99,378.095,47.693,378.095z M47.693,165.34
		c-8.965,0-16.259,7.294-16.259,16.259v148.805c0,8.965,7.294,16.259,16.257,16.259l0,0c8.965,0,16.257-7.294,16.257-16.259V181.599
		C63.95,172.633,56.656,165.34,47.693,165.34z"/>
	<path style="fill:#FFC61B;" d="M337.565,491.212c-5.257,0-10.524-1.242-15.409-3.742l-168.311-86.175
		c-7.726-3.957-10.782-13.427-6.827-21.153c3.956-7.726,13.425-10.782,21.153-6.827l168.311,86.175
		c0.646,0.333,1.273,0.555,2.369-0.118c1.644-1.004,3.561-3.693,3.561-7.967V60.597c0-4.275-1.917-6.964-3.561-7.967
		c-1.095-0.67-1.723-0.451-2.369-0.118L87.868,179.804c-7.728,3.959-17.196,0.897-21.153-6.827
		c-3.956-7.726-0.899-17.196,6.827-21.153L322.158,24.532c10.563-5.405,22.937-4.932,33.093,1.281
		c11.472,7.013,18.596,20.341,18.596,34.784v390.806c0,14.442-7.124,27.772-18.596,34.784
		C349.79,489.529,343.684,491.212,337.565,491.212z"/>
</g>
<path style="fill:#FEE187;" d="M243.1,82.668v346.667l86.221,44.145c13.589,6.958,28.809-4.704,28.809-22.076V60.597
	c0-17.372-15.219-29.034-28.809-22.076L243.1,82.668z"/>
<path style="fill:#FFC61B;" d="M337.569,491.239L337.569,491.239c-5.339,0-10.524-1.268-15.412-3.769l-86.221-44.145
	c-5.251-2.689-8.555-8.091-8.555-13.99V82.666c0-5.899,3.304-11.3,8.555-13.99l86.221-44.145c4.886-2.502,10.071-3.769,15.412-3.769
	c20.004,0,36.278,17.87,36.278,39.836v390.805c0,10.416-3.602,20.239-10.142,27.658C356.883,486.8,347.357,491.239,337.569,491.239z
	 M258.816,419.724l77.668,39.765c0.417,0.214,0.77,0.316,1.084,0.316c0.745,0,1.724-0.585,2.556-1.529
	c0.855-0.97,2.288-3.153,2.288-6.873V60.597c0-5.436-3.2-8.402-4.844-8.402c-0.116,0-0.468,0-1.084,0.316l-77.668,39.765
	L258.816,419.724L258.816,419.724z"/>
<g>
</g>
<g>
</g>
<g>
</g>
<g>
</g>
<g>
</g>
<g>
</g>
<g>
</g>
<g>
</g>
<g>
</g>
<g>
</g>
<g>
</g>
<g>
</g>
<g>
</g>
<g>
</g>
<g>
</g>
</svg>
