<?xml version="1.0" encoding="UTF-8" standalone="no"?>
<svg
   xmlns:dc="http://purl.org/dc/elements/1.1/"
   xmlns:cc="http://creativecommons.org/ns#"
   xmlns:rdf="http://www.w3.org/1999/02/22-rdf-syntax-ns#"
   xmlns:svg="http://www.w3.org/2000/svg"
   xmlns="http://www.w3.org/2000/svg"
   version="1.1"
   id="Capa_1"
   x="0px"
   y="0px"
   viewBox="0 0 412.206 412.206"
   style="enable-background:new 0 0 412.206 412.206;"
   xml:space="preserve"><metadata
   id="metadata67"><rdf:RDF><cc:Work
       rdf:about=""><dc:format>image/svg+xml</dc:format><dc:type
         rdf:resource="http://purl.org/dc/dcmitype/StillImage" /><dc:title></dc:title></cc:Work></rdf:RDF></metadata><defs
   id="defs65">
	
	
	
	
	
	
	
	
	
	
	
	
	
</defs>
<path
   style="fill:#e5d1ab;fill-opacity:1"
   d="m 100.781,401.818 c 3.794,-0.658 6.255,-2.084 9.158,-3.767 4.451,-2.579 9.496,-5.503 19.172,-5.503 9.678,0 14.723,2.924 19.174,5.503 4.006,2.321 7.17,4.155 14.158,4.155 6.987,0 10.15,-1.834 14.156,-4.155 4.449,-2.579 9.494,-5.503 19.17,-5.503 9.676,0 14.721,2.924 19.17,5.503 4.006,2.321 7.168,4.155 14.156,4.155 6.987,0 10.149,-1.834 14.153,-4.154 4.451,-2.58 9.496,-5.504 19.172,-5.504 9.676,0 14.721,2.924 19.17,5.503 4.006,2.321 7.168,4.155 14.154,4.155 6.986,0 10.148,-1.834 14.152,-4.154 4.451,-2.58 9.494,-5.504 19.168,-5.504 9.676,0 14.719,2.924 19.168,5.504 2.902,1.682 5.361,3.107 9.152,3.766 V 379.805 H 100.781 Z"
   id="path2" /><path
   style="fill:#999999"
   d="M 359.484,46.927 H 98.681 c -0.57,1.984 -1.23,5.254 -1.936,9.694 H 361.42 c -0.705,-4.439 -1.365,-7.71 -1.936,-9.694 z"
   id="path4" /><path
   style="fill:#999999"
   d="m 98.679,369.805 h 260.807 c 0.57,-1.986 1.23,-5.257 1.934,-9.694 H 96.746 c 0.704,4.437 1.363,7.708 1.933,9.694 z"
   id="path6" /><path
   style="fill:#cc9933"
   d="m 229.081,175.806 c -4.875,0 -8.842,3.967 -8.842,8.842 0,4.875 3.967,8.841 8.842,8.841 4.876,0 8.842,-3.966 8.842,-8.841 0,-4.875 -3.966,-8.842 -8.842,-8.842 z"
   id="path8" /><path
   style="fill:#e5d1ab;fill-opacity:1"
   d="m 357.385,14.915 c -3.795,0.658 -6.256,2.084 -9.158,3.767 -4.451,2.579 -9.496,5.503 -19.174,5.503 -9.676,0 -14.721,-2.924 -19.172,-5.503 -4.006,-2.322 -7.17,-4.155 -14.16,-4.155 -6.984,0 -10.146,1.833 -14.152,4.154 -4.451,2.58 -9.496,5.504 -19.174,5.504 -9.676,0 -14.719,-2.924 -19.17,-5.503 -4.004,-2.322 -7.168,-4.155 -14.155,-4.155 -6.986,0 -10.15,1.833 -14.154,4.155 -4.451,2.579 -9.494,5.503 -19.17,5.503 -9.676,0 -14.719,-2.924 -19.17,-5.503 -4.004,-2.322 -7.168,-4.155 -14.155,-4.155 -6.985,0 -10.149,1.833 -14.153,4.155 -4.449,2.579 -9.492,5.503 -19.167,5.503 -9.675,0 -14.718,-2.924 -19.168,-5.504 -2.901,-1.682 -5.36,-3.107 -9.151,-3.766 V 36.927 H 357.386 V 14.915 Z"
   id="path10" /><path
   style="fill:#e5d1ab;fill-opacity:1"
   d="m 95.34,66.621 c -3.433,27.189 -7.245,77.833 -7.245,141.746 0,63.905 3.812,114.551 7.244,141.744 h 267.487 c 3.432,-27.192 7.242,-77.838 7.242,-141.744 0,-63.912 -3.812,-114.557 -7.244,-141.746 z m 133.741,252.488 c -61.063,0 -110.743,-49.679 -110.743,-110.742 0,-61.064 49.68,-110.743 110.743,-110.743 61.065,0 110.745,49.679 110.745,110.743 0,61.063 -49.679,110.742 -110.745,110.742 z"
   id="path12" /><path
   style="fill:#88b77e;fill-opacity:1"
   d="m 258.1,272.386 c 3.131,0.815 7.957,-1.582 10.291,-3.916 6.209,-6.21 11.6,-17.177 10.99,-24.434 -7.254,-0.607 -18.225,4.782 -24.436,10.992 -2.332,2.332 -3.74,5.266 -3.963,8.258 -0.053,0.698 -0.033,1.376 0.047,2.029 l 9.82,-9.82 c 1.951,-1.953 5.119,-1.953 7.07,0 1.953,1.952 1.953,5.118 0,7.07 z"
   id="path14" /><path
   style="fill:#88b77e;fill-opacity:1"
   d="m 197.314,255.496 9.823,9.824 c 0.431,-3.387 -0.921,-7.292 -3.921,-10.292 -6.209,-6.209 -17.177,-11.599 -24.433,-10.99 -0.608,7.256 4.782,18.224 10.991,24.433 2.998,2.999 6.904,4.35 10.291,3.92 l -9.824,-9.824 c -1.952,-1.952 -1.952,-5.118 0,-7.07 1.956,-1.954 5.12,-1.954 7.073,-0.001 z"
   id="path16" /><path
   style="fill:#c4c8bd;fill-opacity:1"
   d="m 229.081,107.623 c -55.549,0 -100.743,45.192 -100.743,100.743 0,53.872 42.507,98.003 95.743,100.617 V 296.406 L 207.876,280.2 c -2.754,1.491 -5.857,2.243 -9.041,2.243 -5.66,0 -11.56,-2.33 -16.132,-6.902 -7.997,-7.997 -17.269,-24.882 -12.843,-37.382 0.524,-1.478 1.682,-2.535 3.053,-3.022 l -0.008,-0.022 c 12.498,-4.429 29.385,4.843 37.383,12.841 7.145,7.145 8.791,17.517 4.651,25.166 l 9.142,9.143 v -40.833 c -8.875,-2.034 -15.763,-9.338 -17.14,-18.442 -2.589,1.012 -5.351,1.537 -8.141,1.537 -7.975,0 -15.412,-4.287 -19.406,-11.189 -5.586,-9.718 -3.075,-21.909 5.409,-28.691 -8.488,-6.783 -10.998,-18.975 -5.416,-28.678 3.996,-6.917 11.434,-11.209 19.412,-11.209 2.787,0 5.551,0.527 8.142,1.543 1.628,-10.756 10.934,-19.025 22.136,-19.025 11.204,0 20.51,8.271 22.137,19.025 2.596,-1.016 5.363,-1.543 8.152,-1.543 7.988,0 15.422,4.295 19.398,11.209 5.6,9.691 3.092,21.889 -5.412,28.679 8.5,6.79 11.008,18.985 5.408,28.685 -3.998,6.906 -11.434,11.193 -19.406,11.193 -2.789,0 -5.551,-0.529 -8.139,-1.547 -1.373,9.107 -8.26,16.413 -17.135,18.45 v 40.834 l 9.133,-9.133 c -1.705,-3.121 -2.492,-6.742 -2.205,-10.587 0.4,-5.379 2.838,-10.561 6.865,-14.588 8,-7.998 24.885,-17.271 37.383,-12.841 l -0.008,0.021 c 1.371,0.487 2.527,1.545 3.051,3.022 4.43,12.499 -4.842,29.385 -12.838,37.383 -4.029,4.026 -9.209,6.465 -14.59,6.866 -0.527,0.039 -5.988,0.348 -10.598,-2.196 l -16.193,16.194 v 12.578 c 53.236,-2.614 95.744,-46.745 95.744,-100.617 0.002,-55.549 -45.191,-100.742 -100.743,-100.742 z"
   id="path18" /><path
   style="fill:#df9173;fill-opacity:1"
   d="m 241.467,219.628 v -4.873 c 0,-1.785 0.953,-3.436 2.498,-4.328 1.545,-0.895 3.449,-0.896 4.998,-0.004 l 4.209,2.424 c 1.895,1.101 4.027,1.68 6.184,1.68 4.418,0 8.535,-2.375 10.75,-6.199 3.412,-5.91 1.377,-13.504 -4.539,-16.921 l -4.209,-2.428 c -1.549,-0.894 -2.502,-2.544 -2.502,-4.331 0,-1.788 0.955,-3.439 2.504,-4.332 l 4.211,-2.428 c 5.914,-3.416 7.949,-11.01 4.533,-16.924 -2.203,-3.829 -6.316,-6.203 -10.736,-6.203 -2.16,0 -4.303,0.576 -6.195,1.666 l -4.205,2.428 c -1.547,0.893 -3.453,0.893 -5,0 -1.547,-0.894 -2.5,-2.545 -2.5,-4.33 v -4.857 c 0,-6.831 -5.557,-12.389 -12.389,-12.389 -6.83,0 -12.389,5.558 -12.389,12.389 v 4.857 c 0,1.785 -0.951,3.436 -2.498,4.329 -1.547,0.894 -3.453,0.894 -5,10e-4 l -4.211,-2.43 c -1.887,-1.089 -4.023,-1.664 -6.18,-1.664 -4.42,0 -8.538,2.377 -10.749,6.203 -3.403,5.916 -1.368,13.514 4.54,16.926 l 4.207,2.426 c 1.549,0.893 2.503,2.544 2.503,4.332 0,1.787 -0.954,3.438 -2.501,4.331 l -4.211,2.429 c -5.905,3.41 -7.939,11.008 -4.532,16.934 2.205,3.811 6.325,6.186 10.744,6.186 2.167,0 4.303,-0.572 6.178,-1.655 l 4.199,-2.439 c 0.776,-0.451 1.644,-0.677 2.512,-0.677 0.86,0 1.722,0.223 2.493,0.666 1.551,0.893 2.506,2.545 2.506,4.334 v 4.873 c 0,6.832 5.559,12.389 12.389,12.389 6.831,-0.002 12.388,-5.559 12.388,-12.391 z m -31.226,-34.98 c 0,-10.39 8.452,-18.842 18.841,-18.842 10.391,0 18.842,8.452 18.842,18.842 0,10.389 -8.451,18.841 -18.842,18.841 -10.389,0 -18.841,-8.452 -18.841,-18.841 z"
   id="path20" /><path
   style="fill:#663333"
   d="m 247.924,184.648 c 0,-10.39 -8.451,-18.842 -18.842,-18.842 -10.389,0 -18.841,8.452 -18.841,18.842 0,10.389 8.452,18.841 18.841,18.841 10.391,0 18.842,-8.452 18.842,-18.841 z m -18.843,8.841 c -4.875,0 -8.842,-3.966 -8.842,-8.841 0,-4.875 3.967,-8.842 8.842,-8.842 4.876,0 8.842,3.967 8.842,8.842 0,4.875 -3.966,8.841 -8.842,8.841 z"
   id="path22" /><path
   style="fill:#663333"
   d="m 229.081,97.623 c -61.063,0 -110.743,49.679 -110.743,110.743 0,61.064 49.68,110.742 110.743,110.742 61.065,0 110.745,-49.679 110.745,-110.742 0,-61.064 -49.679,-110.743 -110.745,-110.743 z m -0.003,134.394 c -6.83,0 -12.389,-5.557 -12.389,-12.389 v -4.873 c 0,-1.789 -0.955,-3.441 -2.506,-4.334 -0.771,-0.443 -1.633,-0.666 -2.493,-0.666 -0.868,0 -1.735,0.226 -2.512,0.677 l -4.199,2.439 c -1.875,1.083 -4.011,1.655 -6.178,1.655 -4.419,0 -8.539,-2.375 -10.744,-6.186 -3.407,-5.926 -1.373,-13.523 4.532,-16.934 l 4.211,-2.429 c 1.547,-0.894 2.501,-2.544 2.501,-4.331 0,-1.788 -0.954,-3.439 -2.503,-4.332 l -4.207,-2.426 c -5.908,-3.412 -7.943,-11.01 -4.54,-16.926 2.211,-3.826 6.329,-6.203 10.749,-6.203 2.156,0 4.293,0.575 6.18,1.664 l 4.211,2.43 c 1.547,0.893 3.453,0.893 5,-0.001 1.547,-0.894 2.498,-2.544 2.498,-4.329 v -4.857 c 0,-6.831 5.559,-12.389 12.389,-12.389 6.833,0 12.389,5.558 12.389,12.389 v 4.857 c 0,1.785 0.953,3.436 2.5,4.33 1.547,0.893 3.453,0.893 5,0 l 4.205,-2.428 c 1.893,-1.09 4.035,-1.666 6.195,-1.666 4.42,0 8.533,2.374 10.736,6.203 3.416,5.914 1.381,13.508 -4.533,16.924 l -4.211,2.428 c -1.549,0.893 -2.504,2.544 -2.504,4.332 0,1.787 0.953,3.438 2.502,4.331 l 4.209,2.428 c 5.916,3.417 7.951,11.011 4.539,16.921 -2.215,3.824 -6.332,6.199 -10.75,6.199 -2.156,0 -4.289,-0.578 -6.184,-1.68 l -4.209,-2.424 c -1.549,-0.892 -3.453,-0.891 -4.998,0.004 -1.545,0.893 -2.498,2.543 -2.498,4.328 v 4.873 c 0.001,6.834 -5.556,12.391 -12.388,12.391 z m 5.004,76.967 v -12.578 l 16.193,-16.194 c 4.609,2.544 10.07,2.235 10.598,2.196 5.381,-0.401 10.561,-2.84 14.59,-6.866 7.996,-7.998 17.268,-24.884 12.838,-37.383 -0.523,-1.477 -1.68,-2.535 -3.051,-3.022 l 0.008,-0.021 c -12.498,-4.43 -29.383,4.843 -37.383,12.841 -4.027,4.027 -6.465,9.209 -6.865,14.588 -0.287,3.845 0.5,7.466 2.205,10.587 l -9.133,9.133 V 241.43 c 8.875,-2.037 15.762,-9.343 17.135,-18.45 2.588,1.018 5.35,1.547 8.139,1.547 7.973,0 15.408,-4.287 19.406,-11.193 5.6,-9.699 3.092,-21.895 -5.408,-28.685 8.504,-6.79 11.012,-18.987 5.412,-28.679 -3.977,-6.914 -11.41,-11.209 -19.398,-11.209 -2.789,0 -5.557,0.527 -8.152,1.543 -1.627,-10.754 -10.934,-19.025 -22.137,-19.025 -11.201,0 -20.508,8.27 -22.136,19.025 -2.591,-1.016 -5.354,-1.543 -8.142,-1.543 -7.979,0 -15.416,4.292 -19.412,11.209 -5.582,9.703 -3.072,21.894 5.416,28.678 -8.484,6.781 -10.995,18.973 -5.409,28.691 3.994,6.901 11.431,11.189 19.406,11.189 2.79,0 5.552,-0.525 8.141,-1.537 1.377,9.105 8.265,16.408 17.14,18.442 v 40.833 l -9.142,-9.143 c 4.14,-7.65 2.493,-18.021 -4.651,-25.166 -7.998,-7.998 -24.885,-17.27 -37.383,-12.841 l 0.008,0.022 c -1.371,0.487 -2.528,1.544 -3.053,3.022 -4.426,12.5 4.846,29.385 12.843,37.382 4.572,4.572 10.472,6.902 16.132,6.902 3.184,0 6.287,-0.752 9.041,-2.243 l 16.205,16.206 v 12.577 C 170.847,306.37 128.34,262.239 128.34,208.367 c 0,-55.551 45.194,-100.743 100.743,-100.743 55.551,0 100.745,45.192 100.745,100.743 -0.002,53.872 -42.51,98.003 -95.746,100.617 z m 33.838,-53.488 c -1.951,-1.953 -5.119,-1.953 -7.07,0 l -9.82,9.82 c -0.08,-0.653 -0.1,-1.331 -0.047,-2.029 0.223,-2.992 1.631,-5.926 3.963,-8.258 6.211,-6.21 17.182,-11.6 24.436,-10.992 0.609,7.257 -4.781,18.224 -10.99,24.434 -2.334,2.334 -7.16,4.731 -10.291,3.916 l 9.82,-9.82 c 1.952,-1.953 1.952,-5.119 -10e-4,-7.071 z m -77.678,7.07 9.824,9.824 c -3.387,0.43 -7.293,-0.921 -10.291,-3.92 -6.209,-6.209 -11.6,-17.177 -10.991,-24.433 7.256,-0.608 18.224,4.781 24.433,10.99 3,3 4.352,6.905 3.921,10.292 l -9.823,-9.824 c -1.953,-1.952 -5.117,-1.952 -7.072,0 -1.954,1.953 -1.954,5.119 -0.001,7.071 z"
   id="path24" /><path
   style="fill:#663333"
   d="M 367.385,39.935 V 9.526 c 0,-2.761 -2.238,-5 -5,-5 -9.676,0 -14.721,2.924 -19.172,5.503 -4.006,2.322 -7.17,4.155 -14.16,4.155 -6.988,0 -10.152,-1.833 -14.158,-4.155 -4.451,-2.58 -9.496,-5.503 -19.174,-5.503 -9.674,0 -14.717,2.923 -19.166,5.503 -4.006,2.322 -7.17,4.156 -14.16,4.156 -6.986,0 -10.148,-1.833 -14.154,-4.155 -4.449,-2.58 -9.494,-5.503 -19.17,-5.503 -9.676,0 -14.721,2.924 -19.17,5.503 -4.004,2.322 -7.168,4.155 -14.154,4.155 -6.986,0 -10.15,-1.833 -14.154,-4.155 -4.451,-2.58 -9.494,-5.503 -19.171,-5.503 -9.675,0 -14.719,2.924 -19.169,5.504 -4.004,2.321 -7.166,4.155 -14.151,4.155 -6.985,0 -10.148,-1.833 -14.152,-4.155 -4.45,-2.58 -9.493,-5.504 -19.167,-5.504 -2.762,0 -5,2.239 -5,5 v 30.409 c -3.046,5.542 -6.677,35.588 -7.96,50.307 -1.765,20.242 -4.726,62.506 -4.726,118.125 0,55.619 2.258,97.956 4.726,118.124 2.669,21.815 3.497,35.566 7.96,50.307 v 30.409 c 0,2.762 2.238,5 5,5 9.676,0 14.721,-2.924 19.172,-5.504 4.006,-2.321 7.17,-4.154 14.158,-4.154 6.989,0 10.153,1.834 14.159,4.154 4.451,2.58 9.496,5.504 19.173,5.504 9.676,0 14.721,-2.924 19.17,-5.504 4.006,-2.321 7.169,-4.154 14.156,-4.154 6.987,0 10.15,1.833 14.156,4.154 4.449,2.58 9.494,5.504 19.17,5.504 9.674,0 14.719,-2.924 19.168,-5.504 4.006,-2.32 7.168,-4.154 14.156,-4.154 6.986,0 10.15,1.833 14.154,4.154 4.451,2.58 9.494,5.504 19.17,5.504 9.676,0 14.719,-2.924 19.168,-5.504 4.004,-2.321 7.168,-4.154 14.152,-4.154 6.986,0 10.148,1.833 14.152,4.154 4.451,2.58 9.494,5.504 19.168,5.504 2.762,0 5,-2.238 5,-5 V 376.8 c 3.555,-6.542 6.676,-35.588 7.959,-50.308 1.766,-20.241 4.725,-62.503 4.725,-118.124 0,-55.621 -3.289,-97.857 -4.725,-118.125 C 374.1,72.669 369.037,42.7 367.385,39.935 Z M 100.781,14.915 c 3.791,0.658 6.25,2.084 9.151,3.766 4.45,2.58 9.493,5.504 19.168,5.504 9.675,0 14.718,-2.924 19.167,-5.503 4.004,-2.322 7.168,-4.155 14.153,-4.155 6.987,0 10.151,1.833 14.155,4.155 4.451,2.579 9.494,5.503 19.17,5.503 9.676,0 14.719,-2.924 19.17,-5.503 4.004,-2.322 7.168,-4.155 14.154,-4.155 6.987,0 10.151,1.833 14.155,4.155 4.451,2.579 9.494,5.503 19.17,5.503 9.678,0 14.723,-2.924 19.174,-5.504 4.006,-2.321 7.168,-4.154 14.152,-4.154 6.99,0 10.154,1.833 14.16,4.155 4.451,2.579 9.496,5.503 19.172,5.503 9.678,0 14.723,-2.924 19.174,-5.503 2.902,-1.682 5.363,-3.108 9.158,-3.767 V 36.928 H 100.781 Z m -2.1,32.012 h 260.803 c 0.57,1.984 1.23,5.254 1.936,9.694 H 96.746 c 0.705,-4.439 1.365,-7.71 1.935,-9.694 z m 258.704,354.891 c -3.791,-0.658 -6.25,-2.084 -9.152,-3.766 -4.449,-2.58 -9.492,-5.504 -19.168,-5.504 -9.674,0 -14.717,2.924 -19.168,5.504 -4.004,2.32 -7.166,4.154 -14.152,4.154 -6.986,0 -10.148,-1.834 -14.154,-4.155 -4.449,-2.579 -9.494,-5.503 -19.17,-5.503 -9.676,0 -14.721,2.924 -19.172,5.504 -4.004,2.32 -7.166,4.154 -14.153,4.154 -6.988,0 -10.15,-1.834 -14.156,-4.155 -4.449,-2.579 -9.494,-5.503 -19.17,-5.503 -9.676,0 -14.721,2.924 -19.17,5.503 -4.006,2.321 -7.169,4.155 -14.156,4.155 -6.988,0 -10.152,-1.834 -14.158,-4.155 -4.451,-2.579 -9.496,-5.503 -19.174,-5.503 -9.676,0 -14.721,2.924 -19.172,5.503 -2.903,1.683 -5.364,3.108 -9.158,3.767 v -22.013 h 256.604 v 22.013 z m 2.101,-32.013 H 98.679 c -0.57,-1.986 -1.229,-5.257 -1.934,-9.694 H 361.42 c -0.703,4.437 -1.363,7.708 -1.934,9.694 z m 3.34,-19.694 H 95.339 c -3.432,-27.193 -7.244,-77.839 -7.244,-141.744 0,-63.912 3.812,-114.557 7.245,-141.746 h 267.484 c 3.432,27.188 7.244,77.833 7.244,141.746 0,63.906 -3.81,114.551 -7.242,141.744 z"
   id="path26" />
<path
   style="fill:none;stroke:#000000;stroke-width:10;stroke-linecap:round;stroke-linejoin:round;stroke-miterlimit:10;"
   d="  M32.138,0"
   id="path30" />
<g
   id="g32">
</g>
<g
   id="g34">
</g>
<g
   id="g36">
</g>
<g
   id="g38">
</g>
<g
   id="g40">
</g>
<g
   id="g42">
</g>
<g
   id="g44">
</g>
<g
   id="g46">
</g>
<g
   id="g48">
</g>
<g
   id="g50">
</g>
<g
   id="g52">
</g>
<g
   id="g54">
</g>
<g
   id="g56">
</g>
<g
   id="g58">
</g>
<g
   id="g60">
</g>
</svg>
