<?xml version="1.0" encoding="UTF-8" standalone="no"?>
<svg
   width="14.210938"
   height="4.5"
   viewBox="0 0 14.210939 4.5"
   version="1.1"
   id="svg9"
   xmlns="http://www.w3.org/2000/svg"
   xmlns:svg="http://www.w3.org/2000/svg"
   xmlns:rdf="http://www.w3.org/1999/02/22-rdf-syntax-ns#"
   xmlns:cc="http://creativecommons.org/ns#"
   xmlns:dc="http://purl.org/dc/elements/1.1/">
  <defs
     id="defs13" />
  <!-- Uploaded to SVGRepo https://www.svgrepo.com -->
  <title
     id="title2">ic_fluent_spacebar_24_regular</title>
  <desc
     id="desc4">Created with Sketch.</desc>
  <path
     id="path1127"
     style="color:#000000;fill:#212121;fill-rule:nonzero;stroke:none;stroke-width:1;-inkscape-stroke:none"
     d="M 0.75,0 C 0.3357864,0 0,0.335786 0,0.75 v 2 C 0,3.716498 0.7835017,4.5 1.75,4.5 h 5.3027344 5.4082036 c 0.966497,0 1.749999,-0.783502 1.75,-1.75 v -2 c 0,-0.414214 -0.335786,-0.75 -0.75,-0.75 -0.414214,0 -0.750001,0.335786 -0.75,0.75 v 2 c 0,0.138071 -0.111929,0.25 -0.25,0.25 H 7.0527344 1.75 C 1.6119288,3 1.5,2.888071 1.5,2.75 v -2 C 1.5,0.335786 1.1642136,0 0.75,0 Z" />
  <metadata
     id="metadata830">
    <rdf:RDF>
      <cc:Work
         rdf:about="">
        <dc:title>ic_fluent_spacebar_24_regular</dc:title>
      </cc:Work>
    </rdf:RDF>
  </metadata>
</svg>
