<?xml version="1.0" encoding="utf-8"?>
<!-- Generator: Adobe Illustrator 16.0.0, SVG Export Plug-In . SVG Version: 6.00 Build 0)  -->
<!DOCTYPE svg PUBLIC "-//W3C//DTD SVG 1.1//EN" "http://www.w3.org/Graphics/SVG/1.1/DTD/svg11.dtd">
<svg version="1.1" id="Layer_1" xmlns="http://www.w3.org/2000/svg" xmlns:xlink="http://www.w3.org/1999/xlink" x="0px" y="0px"
	 width="89.43px" height="122.88px" viewBox="0 0 89.43 122.88" style="enable-background:new 0 0 89.43 122.88;"
	 xml:space="preserve">
<style type="text/css">
<![CDATA[
	.st0{fill-rule:evenodd;clip-rule:evenodd;fill:#3BB346;}
	.st1{fill-rule:evenodd;clip-rule:evenodd;fill:#3E9C2A;}
	.st2{fill-rule:evenodd;clip-rule:evenodd;fill:#A6601B;}
	.st3{fill:#864D16;}
	.st4{fill-rule:evenodd;clip-rule:evenodd;fill:#864D16;}
	.st5{fill-rule:evenodd;clip-rule:evenodd;fill:#FFC90E;}
]]>
</style>
<g>
	<polygon class="st0" points="45.28,75.39 52.78,75.39 52.78,122.88 45.28,122.88 45.28,75.39 	"/>
	<path class="st0" d="M50.4,115.55C42.21,98.86,24.57,92.5,8.98,99.52C17.66,117.85,33.39,118.29,50.4,115.55L50.4,115.55z"/>
	<path class="st1" d="M43.6,115.06L8.98,99.52C17.66,117.85,36.95,118.7,43.6,115.06L43.6,115.06z"/>
	<path class="st0" d="M50.03,110.09c0.75-17.88,12.08-28.31,28.54-28.16C78.01,101.45,66.08,105.92,50.03,110.09L50.03,110.09z"/>
	<path class="st1" d="M56.29,108.35l22.28-26.42C78.01,101.45,68.42,103.95,56.29,108.35L56.29,108.35z"/>
	<path class="st2" d="M44.69,21.42c12.41,0,22.47,10.06,22.47,22.47c0,12.41-10.06,22.47-22.47,22.47S22.22,56.3,22.22,43.89
		C22.22,31.48,32.28,21.42,44.69,21.42L44.69,21.42z"/>
	<path class="st3" d="M41.04,21.32c0.03-4.5,1.04-8.44,2.85-11.83c1.95-3.68,4.82-6.72,8.35-9.15c0.84-0.58,2-0.37,2.58,0.47
		l0.05,0.07c2.26,3.6,3.75,7.37,4.18,11.35c0.43,4-0.21,8.17-2.23,12.54c-0.43,0.93-1.53,1.34-2.46,0.91l-0.1-0.05
		c-1.69-0.92-3.47-1.57-5.32-1.95c-1.87-0.39-3.84-0.51-5.91-0.37c-1.02,0.07-1.91-0.71-1.98-1.73
		C41.04,21.49,41.04,21.4,41.04,21.32L41.04,21.32z M47.17,11.23c-1.29,2.43-2.11,5.2-2.35,8.31c1.66,0.01,3.28,0.18,4.85,0.5
		c1.56,0.32,3.06,0.79,4.5,1.42c1.14-3.08,1.49-6.02,1.18-8.84c-0.3-2.75-1.22-5.43-2.62-8.03C50.43,6.45,48.53,8.66,47.17,11.23
		L47.17,11.23z"/>
	<path class="st5" d="M42.89,21.45c0.02-8.77,4.05-15.21,10.4-19.6c4.23,6.76,5.58,14.04,1.84,22.13
		C51.44,21.99,47.36,21.15,42.89,21.45L42.89,21.45z"/>
	<path class="st3" d="M51.07,22.04c1.96-4.09,4.59-7.24,7.71-9.55c3.35-2.48,7.25-3.99,11.48-4.67c1.01-0.16,1.96,0.53,2.12,1.54
		l0.01,0.08l0,0c0.48,4.23,0.21,8.27-1.11,12.04c-1.33,3.81-3.71,7.29-7.41,10.37c-0.79,0.65-1.96,0.54-2.62-0.25
		c-0.06-0.07-0.11-0.14-0.15-0.21c-1.11-1.5-2.4-2.8-3.87-3.92c-1.53-1.16-3.25-2.12-5.18-2.88c-0.95-0.38-1.42-1.45-1.04-2.41
		L51.07,22.04L51.07,22.04z M60.99,15.47c-2.21,1.64-4.14,3.78-5.7,6.49c1.5,0.73,2.9,1.58,4.17,2.55c1.26,0.96,2.41,2.03,3.44,3.21
		c2.36-2.29,3.94-4.79,4.87-7.47c0.92-2.62,1.23-5.43,1.09-8.39C65.98,12.57,63.32,13.74,60.99,15.47L60.99,15.47z"/>
	<path class="st5" d="M52.73,22.86c3.79-7.91,10.21-11.99,17.82-13.21c0.91,7.93-1,15.08-7.87,20.77
		C60.21,27.03,56.89,24.51,52.73,22.86L52.73,22.86z"/>
	<path class="st3" d="M59.87,26.9c3.53-2.84,7.25-4.54,11.05-5.29c4.09-0.8,8.26-0.48,12.37,0.73c0.98,0.29,1.55,1.32,1.26,2.3
		l-0.03,0.08l0,0c-1.38,4.02-3.37,7.55-6.19,10.4c-2.84,2.86-6.48,4.98-11.15,6.16c-1,0.25-2-0.36-2.25-1.35
		c-0.02-0.07-0.03-0.14-0.04-0.22c-0.35-1.84-0.96-3.59-1.82-5.26c-0.88-1.7-2.02-3.31-3.43-4.82c-0.7-0.75-0.66-1.92,0.09-2.62
		C59.78,26.97,59.82,26.93,59.87,26.9L59.87,26.9z M71.64,25.26c-2.7,0.53-5.36,1.63-7.93,3.41c1.04,1.3,1.93,2.67,2.67,4.09
		c0.73,1.4,1.3,2.87,1.72,4.39c3.12-1.05,5.62-2.63,7.61-4.64c1.95-1.96,3.45-4.36,4.59-7.1C77.39,24.79,74.48,24.7,71.64,25.26
		L71.64,25.26z"/>
	<path class="st5" d="M61,28.37c6.83-5.51,14.37-6.43,21.77-4.25c-2.59,7.55-7.39,13.18-16.04,15.36
		C65.96,35.35,64.04,31.65,61,28.37L61,28.37z"/>
	<path class="st3" d="M65.66,35.1c4.41-1.05,8.52-0.99,12.29-0.02c4.04,1.04,7.67,3.12,10.86,5.98c0.76,0.68,0.83,1.85,0.15,2.62
		l-0.06,0.06c-2.98,3.04-6.29,5.37-10.06,6.72c-3.8,1.36-8,1.71-12.72,0.77c-1.01-0.2-1.66-1.18-1.46-2.19
		c0.02-0.08,0.04-0.15,0.06-0.22c0.47-1.82,0.68-3.66,0.62-5.52c-0.06-1.9-0.4-3.85-1.02-5.83c-0.3-0.98,0.24-2.02,1.22-2.33
		L65.66,35.1L65.66,35.1z M77.04,38.67c-2.66-0.68-5.54-0.83-8.63-0.33c0.38,1.62,0.59,3.23,0.64,4.84c0.05,1.58-0.06,3.15-0.33,4.7
		c3.27,0.4,6.21,0.04,8.87-0.91c2.61-0.94,5-2.46,7.2-4.43C82.43,40.72,79.84,39.39,77.04,38.67L77.04,38.67z"/>
	<path class="st5" d="M66.09,36.9c8.53-2.03,15.74,0.39,21.48,5.53c-5.59,5.69-12.34,8.71-21.09,6.96
		C67.57,45.34,67.43,41.17,66.09,36.9L66.09,36.9z"/>
	<path class="st3" d="M67.4,44.98l0.02,0c4.44,0.95,8.12,2.78,11.1,5.27c3.2,2.68,5.58,6.12,7.23,10.07c0.39,0.95-0.06,2.03-1,2.43
		l-0.16,0.06c-3.97,1.44-7.94,2.11-11.88,1.71c-4.01-0.41-7.95-1.9-11.81-4.79c-0.82-0.61-0.98-1.78-0.37-2.59
		c0.04-0.05,0.08-0.1,0.13-0.15c1.21-1.44,2.19-3.02,2.95-4.74c0.77-1.75,1.3-3.65,1.59-5.71c0.14-1.02,1.08-1.72,2.1-1.58
		L67.4,44.98L67.4,44.98z M76.13,53.1c-2.11-1.77-4.64-3.14-7.64-4.02c-0.36,1.63-0.86,3.17-1.5,4.64
		c-0.63,1.45-1.41,2.82-2.33,4.11c2.77,1.76,5.58,2.7,8.4,2.99c2.76,0.28,5.57-0.07,8.41-0.9C80.12,57.28,78.35,54.97,76.13,53.1
		L76.13,53.1z"/>
	<path class="st5" d="M67.01,46.8c8.58,1.84,14.04,7.12,17.01,14.24c-7.5,2.73-14.89,2.55-22.03-2.79
		C64.72,55.05,66.38,51.23,67.01,46.8L67.01,46.8z"/>
	<path class="st3" d="M64.78,54.7c3.57,2.76,6.08,5.97,7.69,9.49c1.74,3.8,2.4,7.92,2.19,12.19c-0.05,1.02-0.92,1.81-1.94,1.77
		l-0.16-0.01c-4.21-0.41-8.08-1.52-11.48-3.58c-3.44-2.09-6.36-5.14-8.6-9.41c-0.47-0.91-0.12-2.03,0.79-2.5l0.1-0.05
		c1.75-0.78,3.34-1.8,4.78-3.04c1.45-1.25,2.74-2.74,3.89-4.46c0.57-0.85,1.72-1.09,2.57-0.52C64.67,54.62,64.73,54.66,64.78,54.7
		L64.78,54.7z M69.1,65.74c-1.14-2.5-2.84-4.83-5.17-6.92c-1.02,1.31-2.14,2.5-3.35,3.55c-1.2,1.04-2.49,1.94-3.87,2.71
		c1.75,2.78,3.87,4.84,6.29,6.32c2.37,1.44,5.06,2.34,7.98,2.81C70.91,71.22,70.31,68.37,69.1,65.74L69.1,65.74z"/>
	<path class="st5" d="M63.59,56.12c6.95,5.35,9.61,12.47,9.22,20.17c-7.94-0.76-14.54-4.11-18.68-12
		C57.96,62.58,61.11,59.85,63.59,56.12L63.59,56.12z"/>
	<path class="st3" d="M58.14,62.23c2.06,4.05,2.95,8.05,2.89,11.95c-0.07,4.18-1.24,8.19-3.27,11.95c-0.49,0.9-1.61,1.24-2.51,0.76
		c-0.06-0.03-0.11-0.06-0.16-0.1c-3.62-2.18-6.63-4.85-8.8-8.16c-2.2-3.36-3.52-7.37-3.71-12.19c-0.04-1.02,0.76-1.88,1.79-1.92
		l0.15,0c1.9,0.04,3.77-0.19,5.59-0.69c1.84-0.5,3.65-1.29,5.43-2.35c0.88-0.53,2.02-0.24,2.54,0.64L58.14,62.23L58.14,62.23z
		 M57.32,74.12c0.04-2.75-0.49-5.58-1.69-8.47c-1.49,0.75-3.01,1.33-4.56,1.76c-1.53,0.42-3.08,0.68-4.65,0.78
		c0.38,3.26,1.41,6.03,2.97,8.41c1.52,2.32,3.56,4.29,5.98,5.97C56.59,79.85,57.28,77.02,57.32,74.12L57.32,74.12z"/>
	<path class="st5" d="M56.48,63.07c3.97,7.82,3.3,15.39-0.36,22.18c-6.84-4.1-11.35-9.97-11.7-18.88
		C48.63,66.47,52.65,65.37,56.48,63.07L56.48,63.07z"/>
	<path class="st3" d="M48.94,66.28c0.11,4.53-0.81,8.51-2.53,11.98c-1.86,3.74-4.64,6.85-8.1,9.38c-0.83,0.61-1.99,0.43-2.59-0.4
		l-0.05-0.07c-2.35-3.55-3.94-7.27-4.48-11.24c-0.54-3.99-0.01-8.18,1.89-12.6c0.41-0.94,1.5-1.38,2.44-0.97
		c0.07,0.03,0.13,0.06,0.2,0.1c1.67,0.84,3.44,1.42,5.28,1.75c1.9,0.34,3.87,0.41,5.92,0.22c1.02-0.1,1.92,0.65,2.02,1.67
		C48.93,66.16,48.94,66.22,48.94,66.28L48.94,66.28z M43.08,76.62c1.23-2.47,1.97-5.25,2.13-8.38c-1.68,0.04-3.3-0.09-4.87-0.37
		c-1.56-0.28-3.07-0.71-4.53-1.3c-1.06,3.11-1.33,6.06-0.95,8.87c0.37,2.75,1.37,5.39,2.84,7.96
		C39.95,81.47,41.79,79.21,43.08,76.62L43.08,76.62z"/>
	<path class="st5" d="M47.08,66.28c0.22,8.77-3.64,15.32-9.87,19.87c-4.41-6.65-5.96-13.88-2.43-22.07
		C38.52,65.97,42.63,66.7,47.08,66.28L47.08,66.28z"/>
	<path class="st3" d="M38.88,65.95c-1.85,4.12-4.39,7.32-7.44,9.71c-3.28,2.57-7.14,4.19-11.35,4.98c-1.01,0.19-1.98-0.48-2.17-1.48
		l-0.01-0.09c-0.6-4.21-0.43-8.26,0.79-12.07c1.23-3.83,3.51-7.38,7.13-10.56c0.77-0.67,1.94-0.6,2.62,0.17l0.07,0.09
		c1.17,1.52,2.53,2.83,4.07,3.94c1.55,1.11,3.3,2.03,5.25,2.74c0.96,0.35,1.46,1.41,1.11,2.38C38.93,65.83,38.91,65.89,38.88,65.95
		L38.88,65.95z M29.16,72.74c2.16-1.69,4.03-3.89,5.52-6.64c-1.52-0.69-2.94-1.5-4.24-2.44c-1.28-0.92-2.46-1.96-3.52-3.12
		c-2.3,2.35-3.8,4.9-4.67,7.6c-0.85,2.64-1.09,5.46-0.87,8.41C24.24,75.77,26.87,74.53,29.16,72.74L29.16,72.74z"/>
	<path class="st5" d="M37.21,65.13c-3.58,8.01-9.88,12.26-17.46,13.68c-1.12-7.9,0.6-15.1,7.31-20.97
		C29.62,61.17,33.01,63.59,37.21,65.13L37.21,65.13z"/>
	<path class="st3" d="M30,61.25c-3.46,2.95-7.15,4.76-10.95,5.61c-4.07,0.91-8.24,0.71-12.38-0.39c-0.99-0.26-1.58-1.28-1.32-2.27
		l0.02-0.08c1.27-4.06,3.17-7.65,5.91-10.56c2.76-2.93,6.35-5.16,10.98-6.46c0.99-0.28,2.01,0.3,2.29,1.29l0.03,0.12
		c0.4,1.87,1.06,3.64,1.98,5.31c0.93,1.68,2.11,3.26,3.55,4.73c0.72,0.73,0.71,1.9-0.02,2.62L30,61.25L30,61.25z M18.25,63.24
		c2.68-0.6,5.31-1.78,7.84-3.62c-1.08-1.28-2-2.62-2.78-4.02c-0.76-1.39-1.38-2.83-1.84-4.34c-3.08,1.13-5.54,2.78-7.48,4.85
		c-1.9,2.02-3.33,4.46-4.4,7.22C12.51,63.87,15.42,63.87,18.25,63.24L18.25,63.24z"/>
	<path class="st5" d="M28.8,59.84c-6.68,5.69-14.2,6.81-21.65,4.83c2.39-7.61,7.04-13.37,15.62-15.78
		C23.65,53,25.67,56.65,28.8,59.84L28.8,59.84z"/>
	<path class="st3" d="M23.9,53.26c-4.37,1.16-8.46,1.2-12.23,0.33c-4.07-0.93-7.75-2.91-11.01-5.68c-0.78-0.66-0.88-1.83-0.22-2.62
		l0.08-0.09c2.89-3.1,6.14-5.52,9.86-6.96c3.75-1.46,7.95-1.92,12.69-1.1c1.01,0.17,1.69,1.13,1.52,2.14l-0.02,0.12
		c-0.44,1.87-0.61,3.76-0.5,5.65c0.11,1.91,0.51,3.85,1.18,5.81c0.33,0.97-0.19,2.03-1.16,2.35C24.02,53.23,23.96,53.25,23.9,53.26
		L23.9,53.26z M12.49,49.98c2.68,0.61,5.56,0.68,8.63,0.11c-0.42-1.61-0.68-3.22-0.77-4.82c-0.09-1.58-0.03-3.16,0.2-4.71
		c-3.27-0.31-6.2,0.13-8.84,1.15c-2.58,1-4.92,2.59-7.08,4.62C7.04,48.07,9.67,49.33,12.49,49.98L12.49,49.98z"/>
	<path class="st5" d="M23.48,51.45C15,53.71,7.74,51.49,1.86,46.49c5.43-5.84,12.11-9.04,20.89-7.52
		C21.78,43.06,22.03,47.22,23.48,51.45L23.48,51.45z"/>
	<path class="st3" d="M21.83,43.39c-4.42-0.84-8.11-2.56-11.13-4.95c-3.27-2.59-5.73-5.96-7.49-9.87c-0.42-0.93,0-2.03,0.94-2.45
		l0.07-0.03l0,0c3.96-1.56,7.93-2.35,11.92-2.05c4.01,0.3,8,1.69,11.93,4.48c0.83,0.59,1.03,1.75,0.44,2.58l-0.07,0.09l0,0
		c-1.2,1.49-2.16,3.12-2.88,4.88c-0.72,1.78-1.2,3.69-1.44,5.74c-0.12,1.02-1.04,1.75-2.06,1.64C22,43.42,21.91,43.41,21.83,43.39
		L21.83,43.39z M13.01,35.53c2.16,1.71,4.72,3.01,7.74,3.81c0.31-1.64,0.77-3.2,1.37-4.68c0.6-1.47,1.34-2.86,2.22-4.17
		c-2.82-1.68-5.64-2.55-8.47-2.76c-2.77-0.21-5.57,0.22-8.39,1.12C8.91,31.46,10.74,33.72,13.01,35.53L13.01,35.53z"/>
	<path class="st5" d="M22.29,41.59c-8.63-1.61-14.23-6.74-17.38-13.78c7.42-2.93,14.82-2.95,22.1,2.2
		C24.37,33.28,22.8,37.14,22.29,41.59L22.29,41.59z"/>
	<path class="st3" d="M24.38,33.67c-3.68-2.68-6.3-5.84-8.01-9.33c-1.84-3.75-2.61-7.85-2.51-12.12c0.02-1.02,0.87-1.84,1.89-1.82
		l0.09,0l0,0c4.25,0.29,8.17,1.29,11.64,3.28l0.01,0l0,0c3.5,2,6.49,4.97,8.84,9.17c0.5,0.9,0.18,2.03-0.71,2.53
		c-0.07,0.04-0.15,0.08-0.23,0.11c-1.67,0.82-3.2,1.86-4.58,3.12c-1.42,1.3-2.68,2.82-3.77,4.56c-0.54,0.87-1.68,1.13-2.55,0.59
		L24.38,33.67L24.38,33.67z M19.69,22.71c1.21,2.47,2.97,4.75,5.35,6.78c0.99-1.35,2.08-2.57,3.26-3.64c1.17-1.06,2.43-2,3.79-2.8
		c-1.82-2.73-4-4.74-6.46-6.14l0,0c-2.41-1.38-5.12-2.2-8.05-2.59C17.74,17.27,18.42,20.11,19.69,22.71L19.69,22.71z"/>
	<path class="st5" d="M25.47,32.17c-7.09-5.16-9.94-12.21-9.76-19.92c7.96,0.55,14.64,3.72,19,11.5
		C30.92,25.57,27.84,28.38,25.47,32.17L25.47,32.17z"/>
	<path class="st3" d="M30.71,25.84c-2.13-3.96-3.12-7.92-3.17-11.79c-0.04-4.17,1.02-8.21,2.95-12.03c0.46-0.92,1.58-1.28,2.49-0.82
		c0.06,0.03,0.13,0.07,0.19,0.11c3.66,2.08,6.74,4.66,8.99,7.91c2.3,3.31,3.72,7.28,4.04,12.08c0.06,1.02-0.71,1.91-1.74,1.97
		c-0.08,0-0.15,0-0.22,0c-1.86,0.01-3.69,0.3-5.49,0.84c-1.84,0.56-3.63,1.39-5.37,2.5c-0.87,0.55-2.02,0.29-2.57-0.57
		C30.77,25.97,30.74,25.91,30.71,25.84L30.71,25.84z M31.25,14.02c0.03,2.74,0.64,5.56,1.92,8.41c1.47-0.79,2.98-1.42,4.52-1.88
		c1.5-0.46,3.04-0.75,4.62-0.89c-0.47-3.25-1.57-6-3.19-8.33c-1.58-2.28-3.67-4.19-6.14-5.8C31.83,8.27,31.22,11.12,31.25,14.02
		L31.25,14.02z"/>
	<path class="st5" d="M32.38,25.04c-4.18-7.71-3.71-15.3-0.23-22.18c6.95,3.92,11.62,9.66,12.2,18.56
		C40.15,21.42,36.16,22.64,32.38,25.04L32.38,25.04z"/>
	<path class="st4" d="M44.69,32.1c6.52,0,11.8,5.28,11.8,11.8c0,6.51-5.28,11.8-11.8,11.8c-6.51,0-11.8-5.28-11.8-11.8
		C32.89,37.38,38.17,32.1,44.69,32.1L44.69,32.1z"/>
</g>
</svg>
